<svg width="275" height="109" viewBox="0 0 275 109" fill="none" xmlns="http://www.w3.org/2000/svg">
<path d="M2.797 106.261C68.6099 95.2922 205.72 95.2922 271.533 106.261" stroke="url(#paint0_linear_1_668)" stroke-width="4.11331" stroke-linecap="round"/>
<path d="M30.2338 41.012C31.4338 39.14 33.0898 37.628 35.2018 36.476C37.3138 35.324 39.7858 34.748 42.6178 34.748C45.9298 34.748 48.9298 35.588 51.6178 37.268C54.3058 38.948 56.4178 41.348 57.9538 44.468C59.5378 47.588 60.3298 51.212 60.3298 55.34C60.3298 59.468 59.5378 63.116 57.9538 66.284C56.4178 69.404 54.3058 71.828 51.6178 73.556C48.9298 75.236 45.9298 76.076 42.6178 76.076C39.8338 76.076 37.3618 75.5 35.2018 74.348C33.0898 73.196 31.4338 71.708 30.2338 69.884V94.652H17.9218V35.324H30.2338V41.012ZM47.8018 55.34C47.8018 52.268 46.9378 49.868 45.2098 48.14C43.5298 46.364 41.4418 45.476 38.9458 45.476C36.4978 45.476 34.4098 46.364 32.6818 48.14C31.0018 49.916 30.1618 52.34 30.1618 55.412C30.1618 58.484 31.0018 60.908 32.6818 62.684C34.4098 64.46 36.4978 65.348 38.9458 65.348C41.3938 65.348 43.4818 64.46 45.2098 62.684C46.9378 60.86 47.8018 58.412 47.8018 55.34ZM77.301 42.02C78.741 39.812 80.541 38.084 82.701 36.836C84.861 35.54 87.261 34.892 89.901 34.892V47.924H86.517C83.445 47.924 81.141 48.596 79.605 49.94C78.069 51.236 77.301 53.54 77.301 56.852V75.5H64.989V35.324H77.301V42.02ZM112.274 76.076C108.338 76.076 104.786 75.236 101.618 73.556C98.4979 71.876 96.0259 69.476 94.2019 66.356C92.4259 63.236 91.5379 59.588 91.5379 55.412C91.5379 51.284 92.4499 47.66 94.2739 44.54C96.0979 41.372 98.5939 38.948 101.762 37.268C104.93 35.588 108.482 34.748 112.418 34.748C116.354 34.748 119.906 35.588 123.074 37.268C126.242 38.948 128.738 41.372 130.562 44.54C132.386 47.66 133.298 51.284 133.298 55.412C133.298 59.54 132.362 63.188 130.49 66.356C128.666 69.476 126.146 71.876 122.93 73.556C119.762 75.236 116.21 76.076 112.274 76.076ZM112.274 65.42C114.626 65.42 116.618 64.556 118.25 62.828C119.93 61.1 120.77 58.628 120.77 55.412C120.77 52.196 119.954 49.724 118.322 47.996C116.738 46.268 114.77 45.404 112.418 45.404C110.018 45.404 108.026 46.268 106.442 47.996C104.858 49.676 104.066 52.148 104.066 55.412C104.066 58.628 104.834 61.1 106.37 62.828C107.954 64.556 109.922 65.42 112.274 65.42ZM135.582 55.34C135.582 51.212 136.35 47.588 137.886 44.468C139.47 41.348 141.606 38.948 144.294 37.268C146.982 35.588 149.982 34.748 153.294 34.748C155.934 34.748 158.334 35.3 160.494 36.404C162.702 37.508 164.43 38.996 165.678 40.868V22.22H177.99V75.5H165.678V69.74C164.526 71.66 162.87 73.196 160.71 74.348C158.598 75.5 156.126 76.076 153.294 76.076C149.982 76.076 146.982 75.236 144.294 73.556C141.606 71.828 139.47 69.404 137.886 66.284C136.35 63.116 135.582 59.468 135.582 55.34ZM165.678 55.412C165.678 52.34 164.814 49.916 163.086 48.14C161.406 46.364 159.342 45.476 156.894 45.476C154.446 45.476 152.358 46.364 150.63 48.14C148.95 49.868 148.11 52.268 148.11 55.34C148.11 58.412 148.95 60.86 150.63 62.684C152.358 64.46 154.446 65.348 156.894 65.348C159.342 65.348 161.406 64.46 163.086 62.684C164.814 60.908 165.678 58.484 165.678 55.412ZM224.769 35.324V75.5H212.457V70.028C211.209 71.804 209.505 73.244 207.345 74.348C205.233 75.404 202.881 75.932 200.289 75.932C197.217 75.932 194.505 75.26 192.153 73.916C189.801 72.524 187.977 70.532 186.681 67.94C185.385 65.348 184.737 62.3 184.737 58.796V35.324H196.977V57.14C196.977 59.828 197.673 61.916 199.065 63.404C200.457 64.892 202.329 65.636 204.681 65.636C207.081 65.636 208.977 64.892 210.369 63.404C211.761 61.916 212.457 59.828 212.457 57.14V35.324H224.769ZM238.004 31.148C235.844 31.148 234.068 30.524 232.676 29.276C231.332 27.98 230.66 26.396 230.66 24.524C230.66 22.604 231.332 21.02 232.676 19.772C234.068 18.476 235.844 17.828 238.004 17.828C240.116 17.828 241.844 18.476 243.188 19.772C244.58 21.02 245.276 22.604 245.276 24.524C245.276 26.396 244.58 27.98 243.188 29.276C241.844 30.524 240.116 31.148 238.004 31.148ZM244.124 35.324V75.5H231.812V35.324H244.124ZM273.639 65.06V75.5H267.375C262.911 75.5 259.431 74.42 256.935 72.26C254.439 70.052 253.191 66.476 253.191 61.532V45.548H248.295V35.324H253.191V25.532H265.503V35.324H273.567V45.548H265.503V61.676C265.503 62.876 265.791 63.74 266.367 64.268C266.943 64.796 267.903 65.06 269.247 65.06H273.639Z" fill="url(#paint1_linear_1_668)"/>
<defs>
<linearGradient id="paint0_linear_1_668" x1="2.797" y1="98.0344" x2="26876.4" y2="98.0344" gradientUnits="userSpaceOnUse">
<stop stop-color="#0B6B3A"/>
<stop offset="1" stop-color="#16A34A"/>
</linearGradient>
<linearGradient id="paint1_linear_1_668" x1="0" y1="50.5" x2="277" y2="50.5" gradientUnits="userSpaceOnUse">
<stop stop-color="#16A34A"/>
<stop offset="1" stop-color="#0B6B3A"/>
</linearGradient>
</defs>
</svg>
